REM COMMENT "Generated by IcecastMetadataRecorder https://github.com/eshaz/icecast-metadata-js"
REM BR "16"
REM METAINT "64"
REM DATE "2020-07-29T21:16:11.222Z"
TITLE "isics-all"
FILE "isics-all.mp3" WAVE
  TRACK 1 AUDIO
    TITLE "2020-07-29T21:28:10.134Z TO:52200 Mercy ONE Iowa Ground Dispatch FROM:10779527"
    INDEX 01 11:58:68
  TRACK 2 AUDIO
    TITLE "2020-07-29T21:28:12.950Z TO:7300 Department of Transportation - District 1 Highway Helper - Des Moines Area FROM:14928"
    INDEX 01 12:01:55
  TRACK 3 AUDIO
    TITLE "2020-07-29T21:28:16.438Z TO:24660 Dallas County Woodward Fire Dispatch FROM:UNKNOWN"
    INDEX 01 12:05:16
  TRACK 4 AUDIO
    TITLE "2020-07-29T21:28:19.222Z TO:52200 Mercy ONE Iowa Ground Dispatch FROM:10779504"
    INDEX 01 12:08:00
  TRACK 5 AUDIO
    TITLE "2020-07-29T21:28:21.334Z TO:7300 Department of Transportation - District 1 Highway Helper - Des Moines Area FROM:14928"
    INDEX 01 12:10:08
  TRACK 6 AUDIO
    TITLE "2020-07-29T21:28:24.822Z TO:P:24605 [14002] Dallas County Law 1, Region 4 Interoperability Tac 42 FROM:11498"
    INDEX 01 12:13:45
  TRACK 7 AUDIO
    TITLE "2020-07-29T21:28:33.238Z TO:5105 Department of Public Safety - Area B Law 5B - DPS District #5 + #6 FROM:10971"
    INDEX 01 12:22:01
  TRACK 8 AUDIO
    TITLE "2020-07-29T21:28:35.350Z TO:52200 Mercy ONE Iowa Ground Dispatch FROM:10779527"
    INDEX 01 12:24:10
  TRACK 9 AUDIO
    TITLE "2020-07-29T21:28:38.134Z TO:52200 Mercy ONE Iowa Ground Dispatch FROM:10779504"
    INDEX 01 12:26:68
  TRACK 10 AUDIO
    TITLE "END"
    INDEX 01 12:28:24